# Blender 4.5.3 LTS
# www.blender.org
mtllib Untitled.mtl
o Icosphere
v 0.000000 -0.910000 0.000000
v 0.723607 -0.357220 0.525725
v -0.276388 -0.357220 0.850649
v -0.894426 -0.357216 0.000000
v -0.276388 -0.357220 -0.850649
v 0.723607 -0.357220 -0.525725
v 0.276388 0.537220 0.850649
v -0.723607 0.537220 0.525725
v -0.723607 0.537220 -0.525725
v 0.276388 0.537220 -0.850649
v 0.894426 0.537216 0.000000
v 0.000000 1.090000 0.000000
v -0.162456 -0.760654 0.499995
v 0.425323 -0.760654 0.309011
v 0.262869 -0.435738 0.809012
v 0.850648 -0.435736 0.000000
v 0.425323 -0.760654 -0.309011
v -0.525730 -0.760652 0.000000
v -0.688189 -0.435736 0.499997
v -0.162456 -0.760654 -0.499995
v -0.688189 -0.435736 -0.499997
v 0.262869 -0.435738 -0.809012
v 0.951058 0.090000 0.309013
v 0.951058 0.090000 -0.309013
v 0.000000 0.090000 1.000000
v 0.587786 0.090000 0.809017
v -0.951058 0.090000 0.309013
v -0.587786 0.090000 0.809017
v -0.587786 0.090000 -0.809017
v -0.951058 0.090000 -0.309013
v 0.587786 0.090000 -0.809017
v 0.000000 0.090000 -1.000000
v 0.688189 0.615736 0.499997
v -0.262869 0.615738 0.809012
v -0.850648 0.615736 0.000000
v -0.262869 0.615738 -0.809012
v 0.688189 0.615736 -0.499997
v 0.162456 0.940654 0.499995
v 0.525730 0.940652 0.000000
v -0.425323 0.940654 0.309011
v -0.425323 0.940654 -0.309011
v 0.162456 0.940654 -0.499995
v 0.000000 0.537602 0.000000
v 0.537205 0.947985 0.390297
v -0.205190 0.947985 0.631520
v -0.664020 0.947988 0.000000
v -0.205190 0.947985 -0.631520
v 0.537205 0.947985 -0.390297
v 0.205190 1.612015 0.631520
v -0.537205 1.612015 0.390297
v -0.537205 1.612015 -0.390297
v 0.205190 1.612015 -0.631520
v 0.664020 1.612012 0.000000
v 0.000000 2.022398 0.000000
v -0.120607 0.648476 0.371195
v 0.315759 0.648476 0.229409
v 0.195153 0.889693 0.600609
v 0.631519 0.889695 0.000000
v 0.315759 0.648476 -0.229409
v -0.390301 0.648478 0.000000
v -0.510910 0.889694 0.371197
v -0.120607 0.648476 -0.371195
v -0.510910 0.889694 -0.371197
v 0.195153 0.889693 -0.600609
v 0.706063 1.280000 0.229410
v 0.706063 1.280000 -0.229410
v 0.000000 1.280000 0.742398
v 0.436371 1.280000 0.600612
v -0.706063 1.280000 0.229410
v -0.436371 1.280000 0.600612
v -0.436371 1.280000 -0.600612
v -0.706063 1.280000 -0.229410
v 0.436371 1.280000 -0.600612
v 0.000000 1.280000 -0.742398
v 0.510910 1.670305 0.371197
v -0.195153 1.670307 0.600609
v -0.631519 1.670305 0.000000
v -0.195153 1.670307 -0.600609
v 0.510910 1.670305 -0.371197
v 0.120607 1.911524 0.371195
v 0.390301 1.911522 0.000000
v -0.315759 1.911524 0.229409
v -0.315759 1.911524 -0.229409
v 0.120607 1.911524 -0.371195
v 0.000000 1.703686 0.000000
v 0.438733 2.038845 0.318755
v -0.167578 2.038844 0.515761
v -0.542303 2.038847 0.000000
v -0.167578 2.038844 -0.515761
v 0.438733 2.038845 -0.318755
v 0.167578 2.581156 0.515761
v -0.438733 2.581155 0.318755
v -0.438733 2.581155 -0.318755
v 0.167578 2.581156 -0.515761
v 0.542303 2.581153 0.000000
v 0.000000 2.916314 0.000000
v -0.098499 1.794236 0.303154
v 0.257879 1.794237 0.187358
v 0.159381 1.991238 0.490515
v 0.515760 1.991239 0.000000
v 0.257879 1.794237 -0.187358
v -0.318757 1.794238 0.000000
v -0.417259 1.991239 0.303155
v -0.098499 1.794236 -0.303154
v -0.417259 1.991239 -0.303155
v 0.159381 1.991238 -0.490515
v 0.576640 2.310000 0.187359
v 0.576640 2.310000 -0.187359
v 0.000000 2.310000 0.606314
v 0.356383 2.310000 0.490518
v -0.576640 2.310000 0.187359
v -0.356383 2.310000 0.490518
v -0.356383 2.310000 -0.490518
v -0.576640 2.310000 -0.187359
v 0.356383 2.310000 -0.490518
v 0.000000 2.310000 -0.606314
v 0.417259 2.628761 0.303155
v -0.159381 2.628762 0.490515
v -0.515760 2.628761 0.000000
v -0.159381 2.628762 -0.490515
v 0.417259 2.628761 -0.303155
v 0.098499 2.825763 0.303154
v 0.318757 2.825762 0.000000
v -0.257879 2.825763 0.187358
v -0.257879 2.825763 -0.187358
v 0.098499 2.825763 -0.303154
vn 0.1024 -0.9435 0.3151
vn 0.7002 -0.6617 0.2680
vn -0.2680 -0.9435 0.1947
vn -0.2680 -0.9435 -0.1947
vn 0.1024 -0.9435 -0.3151
vn 0.9050 -0.3304 0.2680
vn 0.0247 -0.3304 0.9435
vn -0.8897 -0.3304 0.3151
vn -0.5746 -0.3304 -0.7488
vn 0.5346 -0.3304 -0.7779
vn 0.8026 -0.1256 0.5831
vn -0.3066 -0.1256 0.9435
vn -0.9921 -0.1256 -0.0000
vn -0.3066 -0.1256 -0.9435
vn 0.8026 -0.1256 -0.5831
vn 0.4089 0.6617 0.6284
vn -0.4713 0.6617 0.5831
vn -0.7002 0.6617 -0.2680
vn 0.0385 0.6617 -0.7488
vn 0.7240 0.6617 -0.1947
vn 0.2680 0.9435 -0.1947
vn 0.4911 0.7947 -0.3568
vn 0.4089 0.6617 -0.6284
vn -0.1024 0.9435 -0.3151
vn -0.1876 0.7947 -0.5773
vn -0.4713 0.6617 -0.5831
vn -0.3313 0.9435 -0.0000
vn -0.6071 0.7947 -0.0000
vn -0.7002 0.6617 0.2680
vn -0.1024 0.9435 0.3151
vn -0.1876 0.7947 0.5773
vn 0.0385 0.6617 0.7488
vn 0.2680 0.9435 0.1947
vn 0.4911 0.7947 0.3568
vn 0.7240 0.6617 0.1947
vn 0.8897 0.3304 -0.3151
vn 0.7947 0.1876 -0.5773
vn 0.5746 0.3304 -0.7488
vn -0.0247 0.3304 -0.9435
vn -0.3035 0.1876 -0.9342
vn -0.5346 0.3304 -0.7779
vn -0.9050 0.3304 -0.2680
vn -0.9822 0.1876 -0.0000
vn -0.9050 0.3304 0.2680
vn -0.5346 0.3304 0.7779
vn -0.3035 0.1876 0.9342
vn -0.0247 0.3304 0.9435
vn 0.5746 0.3304 0.7488
vn 0.7947 0.1876 0.5773
vn 0.8897 0.3304 0.3151
vn 0.3066 0.1256 -0.9435
vn 0.3035 -0.1876 -0.9342
vn 0.0247 -0.3304 -0.9435
vn -0.8026 0.1256 -0.5831
vn -0.7947 -0.1876 -0.5773
vn -0.8897 -0.3304 -0.3151
vn -0.8026 0.1256 0.5831
vn -0.7947 -0.1876 0.5773
vn -0.5746 -0.3304 0.7488
vn 0.3066 0.1256 0.9435
vn 0.3035 -0.1876 0.9342
vn 0.5346 -0.3304 0.7779
vn 0.9921 0.1256 -0.0000
vn 0.9822 -0.1876 -0.0000
vn 0.9050 -0.3304 -0.2680
vn 0.4713 -0.6617 -0.5831
vn 0.1876 -0.7947 -0.5773
vn -0.0385 -0.6617 -0.7488
vn -0.4089 -0.6617 -0.6284
vn -0.4911 -0.7947 -0.3568
vn -0.7240 -0.6617 -0.1947
vn -0.7240 -0.6617 0.1947
vn -0.4911 -0.7947 0.3568
vn -0.4089 -0.6617 0.6284
vn 0.7002 -0.6617 -0.2680
vn 0.6071 -0.7947 -0.0000
vn 0.3313 -0.9435 -0.0000
vn -0.0385 -0.6617 0.7488
vn 0.1876 -0.7947 0.5773
vn 0.4713 -0.6617 0.5831
vt 0.181819 0.000000
vt 0.227273 0.078731
vt 0.136365 0.078731
vt 0.272728 0.157461
vt 0.318182 0.078731
vt 0.363637 0.157461
vt 0.909091 0.000000
vt 0.954545 0.078731
vt 0.863636 0.078731
vt 0.727273 0.000000
vt 0.772727 0.078731
vt 0.681818 0.078731
vt 0.545455 0.000000
vt 0.590909 0.078731
vt 0.500000 0.078731
vt 0.318182 0.236191
vt 0.090910 0.157461
vt 0.181819 0.157461
vt 0.136365 0.236191
vt 0.818182 0.157461
vt 0.909091 0.157461
vt 0.863636 0.236191
vt 0.636364 0.157461
vt 0.727273 0.157461
vt 0.681818 0.236191
vt 0.454546 0.157461
vt 0.545455 0.157461
vt 0.500000 0.236191
vt 0.227273 0.236191
vt 0.045455 0.236191
vt 0.772727 0.236191
vt 0.590909 0.236191
vt 0.409092 0.236191
vt 0.181819 0.314921
vt 0.272728 0.314921
vt 0.227273 0.393651
vt 0.000000 0.314921
vt 0.090910 0.314921
vt 0.045455 0.393651
vt 0.727273 0.314921
vt 0.818182 0.314921
vt 0.772727 0.393651
vt 0.545455 0.314921
vt 0.636364 0.314921
vt 0.590909 0.393651
vt 0.363637 0.314921
vt 0.454546 0.314921
vt 0.409092 0.393651
vt 0.500000 0.393651
vt 0.454546 0.472382
vt 0.681818 0.393651
vt 0.636364 0.472382
vt 0.863636 0.393651
vt 0.818182 0.472382
vt 0.909091 0.314921
vt 0.136365 0.393651
vt 0.090910 0.472382
vt 0.318182 0.393651
vt 0.272728 0.472382
vt 0.954545 0.236191
vt 1.000000 0.157461
vt 0.409092 0.078731
vt 0.363637 0.000000
s 0
f 1/1/1 14/2/1 13/3/1
f 2/4/2 14/5/2 16/6/2
f 1/7/3 13/8/3 18/9/3
f 1/10/4 18/11/4 20/12/4
f 1/13/5 20/14/5 17/15/5
f 2/4/6 16/6/6 23/16/6
f 3/17/7 15/18/7 25/19/7
f 4/20/8 19/21/8 27/22/8
f 5/23/9 21/24/9 29/25/9
f 6/26/10 22/27/10 31/28/10
f 2/4/11 23/16/11 26/29/11
f 3/17/12 25/19/12 28/30/12
f 4/20/13 27/22/13 30/31/13
f 5/23/14 29/25/14 32/32/14
f 6/26/15 31/28/15 24/33/15
f 7/34/16 33/35/16 38/36/16
f 8/37/17 34/38/17 40/39/17
f 9/40/18 35/41/18 41/42/18
f 10/43/19 36/44/19 42/45/19
f 11/46/20 37/47/20 39/48/20
f 39/48/21 42/49/21 12/50/21
f 39/48/22 37/47/22 42/49/22
f 37/47/23 10/43/23 42/49/23
f 42/45/24 41/51/24 12/52/24
f 42/45/25 36/44/25 41/51/25
f 36/44/26 9/40/26 41/51/26
f 41/42/27 40/53/27 12/54/27
f 41/42/28 35/41/28 40/53/28
f 35/41/29 8/55/29 40/53/29
f 40/39/30 38/56/30 12/57/30
f 40/39/31 34/38/31 38/56/31
f 34/38/32 7/34/32 38/56/32
f 38/36/33 39/58/33 12/59/33
f 38/36/34 33/35/34 39/58/34
f 33/35/35 11/46/35 39/58/35
f 24/33/36 37/47/36 11/46/36
f 24/33/37 31/28/37 37/47/37
f 31/28/38 10/43/38 37/47/38
f 32/32/39 36/44/39 10/43/39
f 32/32/40 29/25/40 36/44/40
f 29/25/41 9/40/41 36/44/41
f 30/31/42 35/41/42 9/40/42
f 30/31/43 27/22/43 35/41/43
f 27/22/44 8/55/44 35/41/44
f 28/30/45 34/38/45 8/37/45
f 28/30/46 25/19/46 34/38/46
f 25/19/47 7/34/47 34/38/47
f 26/29/48 33/35/48 7/34/48
f 26/29/49 23/16/49 33/35/49
f 23/16/50 11/46/50 33/35/50
f 31/28/51 32/32/51 10/43/51
f 31/28/52 22/27/52 32/32/52
f 22/27/53 5/23/53 32/32/53
f 29/25/54 30/31/54 9/40/54
f 29/25/55 21/24/55 30/31/55
f 21/24/56 4/20/56 30/31/56
f 27/22/57 28/60/57 8/55/57
f 27/22/58 19/21/58 28/60/58
f 19/21/59 3/61/59 28/60/59
f 25/19/60 26/29/60 7/34/60
f 25/19/61 15/18/61 26/29/61
f 15/18/62 2/4/62 26/29/62
f 23/16/63 24/33/63 11/46/63
f 23/16/64 16/6/64 24/33/64
f 16/6/65 6/26/65 24/33/65
f 17/15/66 22/27/66 6/26/66
f 17/15/67 20/14/67 22/27/67
f 20/14/68 5/23/68 22/27/68
f 20/12/69 21/24/69 5/23/69
f 20/12/70 18/11/70 21/24/70
f 18/11/71 4/20/71 21/24/71
f 18/9/72 19/21/72 4/20/72
f 18/9/73 13/8/73 19/21/73
f 13/8/74 3/61/74 19/21/74
f 16/6/75 17/62/75 6/26/75
f 16/6/76 14/5/76 17/62/76
f 14/5/77 1/63/77 17/62/77
f 13/3/78 15/18/78 3/17/78
f 13/3/79 14/2/79 15/18/79
f 14/2/80 2/4/80 15/18/80
f 43/1/1 56/2/1 55/3/1
f 44/4/2 56/5/2 58/6/2
f 43/7/3 55/8/3 60/9/3
f 43/10/4 60/11/4 62/12/4
f 43/13/5 62/14/5 59/15/5
f 44/4/6 58/6/6 65/16/6
f 45/17/7 57/18/7 67/19/7
f 46/20/8 61/21/8 69/22/8
f 47/23/9 63/24/9 71/25/9
f 48/26/10 64/27/10 73/28/10
f 44/4/11 65/16/11 68/29/11
f 45/17/12 67/19/12 70/30/12
f 46/20/13 69/22/13 72/31/13
f 47/23/14 71/25/14 74/32/14
f 48/26/15 73/28/15 66/33/15
f 49/34/16 75/35/16 80/36/16
f 50/37/17 76/38/17 82/39/17
f 51/40/18 77/41/18 83/42/18
f 52/43/19 78/44/19 84/45/19
f 53/46/20 79/47/20 81/48/20
f 81/48/21 84/49/21 54/50/21
f 81/48/22 79/47/22 84/49/22
f 79/47/23 52/43/23 84/49/23
f 84/45/24 83/51/24 54/52/24
f 84/45/25 78/44/25 83/51/25
f 78/44/26 51/40/26 83/51/26
f 83/42/27 82/53/27 54/54/27
f 83/42/28 77/41/28 82/53/28
f 77/41/29 50/55/29 82/53/29
f 82/39/30 80/56/30 54/57/30
f 82/39/31 76/38/31 80/56/31
f 76/38/32 49/34/32 80/56/32
f 80/36/33 81/58/33 54/59/33
f 80/36/34 75/35/34 81/58/34
f 75/35/35 53/46/35 81/58/35
f 66/33/36 79/47/36 53/46/36
f 66/33/37 73/28/37 79/47/37
f 73/28/38 52/43/38 79/47/38
f 74/32/39 78/44/39 52/43/39
f 74/32/40 71/25/40 78/44/40
f 71/25/41 51/40/41 78/44/41
f 72/31/42 77/41/42 51/40/42
f 72/31/43 69/22/43 77/41/43
f 69/22/44 50/55/44 77/41/44
f 70/30/45 76/38/45 50/37/45
f 70/30/46 67/19/46 76/38/46
f 67/19/47 49/34/47 76/38/47
f 68/29/48 75/35/48 49/34/48
f 68/29/49 65/16/49 75/35/49
f 65/16/50 53/46/50 75/35/50
f 73/28/51 74/32/51 52/43/51
f 73/28/52 64/27/52 74/32/52
f 64/27/53 47/23/53 74/32/53
f 71/25/54 72/31/54 51/40/54
f 71/25/55 63/24/55 72/31/55
f 63/24/56 46/20/56 72/31/56
f 69/22/57 70/60/57 50/55/57
f 69/22/58 61/21/58 70/60/58
f 61/21/59 45/61/59 70/60/59
f 67/19/60 68/29/60 49/34/60
f 67/19/61 57/18/61 68/29/61
f 57/18/62 44/4/62 68/29/62
f 65/16/63 66/33/63 53/46/63
f 65/16/64 58/6/64 66/33/64
f 58/6/65 48/26/65 66/33/65
f 59/15/66 64/27/66 48/26/66
f 59/15/67 62/14/67 64/27/67
f 62/14/68 47/23/68 64/27/68
f 62/12/69 63/24/69 47/23/69
f 62/12/70 60/11/70 63/24/70
f 60/11/71 46/20/71 63/24/71
f 60/9/72 61/21/72 46/20/72
f 60/9/73 55/8/73 61/21/73
f 55/8/74 45/61/74 61/21/74
f 58/6/75 59/62/75 48/26/75
f 58/6/76 56/5/76 59/62/76
f 56/5/77 43/63/77 59/62/77
f 55/3/78 57/18/78 45/17/78
f 55/3/79 56/2/79 57/18/79
f 56/2/80 44/4/80 57/18/80
f 85/1/1 98/2/1 97/3/1
f 86/4/2 98/5/2 100/6/2
f 85/7/3 97/8/3 102/9/3
f 85/10/4 102/11/4 104/12/4
f 85/13/5 104/14/5 101/15/5
f 86/4/6 100/6/6 107/16/6
f 87/17/7 99/18/7 109/19/7
f 88/20/8 103/21/8 111/22/8
f 89/23/9 105/24/9 113/25/9
f 90/26/10 106/27/10 115/28/10
f 86/4/11 107/16/11 110/29/11
f 87/17/12 109/19/12 112/30/12
f 88/20/13 111/22/13 114/31/13
f 89/23/14 113/25/14 116/32/14
f 90/26/15 115/28/15 108/33/15
f 91/34/16 117/35/16 122/36/16
f 92/37/17 118/38/17 124/39/17
f 93/40/18 119/41/18 125/42/18
f 94/43/19 120/44/19 126/45/19
f 95/46/20 121/47/20 123/48/20
f 123/48/21 126/49/21 96/50/21
f 123/48/22 121/47/22 126/49/22
f 121/47/23 94/43/23 126/49/23
f 126/45/24 125/51/24 96/52/24
f 126/45/25 120/44/25 125/51/25
f 120/44/26 93/40/26 125/51/26
f 125/42/27 124/53/27 96/54/27
f 125/42/28 119/41/28 124/53/28
f 119/41/29 92/55/29 124/53/29
f 124/39/30 122/56/30 96/57/30
f 124/39/31 118/38/31 122/56/31
f 118/38/32 91/34/32 122/56/32
f 122/36/33 123/58/33 96/59/33
f 122/36/34 117/35/34 123/58/34
f 117/35/35 95/46/35 123/58/35
f 108/33/36 121/47/36 95/46/36
f 108/33/37 115/28/37 121/47/37
f 115/28/38 94/43/38 121/47/38
f 116/32/39 120/44/39 94/43/39
f 116/32/40 113/25/40 120/44/40
f 113/25/41 93/40/41 120/44/41
f 114/31/42 119/41/42 93/40/42
f 114/31/43 111/22/43 119/41/43
f 111/22/44 92/55/44 119/41/44
f 112/30/45 118/38/45 92/37/45
f 112/30/46 109/19/46 118/38/46
f 109/19/47 91/34/47 118/38/47
f 110/29/48 117/35/48 91/34/48
f 110/29/49 107/16/49 117/35/49
f 107/16/50 95/46/50 117/35/50
f 115/28/51 116/32/51 94/43/51
f 115/28/52 106/27/52 116/32/52
f 106/27/53 89/23/53 116/32/53
f 113/25/54 114/31/54 93/40/54
f 113/25/55 105/24/55 114/31/55
f 105/24/56 88/20/56 114/31/56
f 111/22/57 112/60/57 92/55/57
f 111/22/58 103/21/58 112/60/58
f 103/21/59 87/61/59 112/60/59
f 109/19/60 110/29/60 91/34/60
f 109/19/61 99/18/61 110/29/61
f 99/18/62 86/4/62 110/29/62
f 107/16/63 108/33/63 95/46/63
f 107/16/64 100/6/64 108/33/64
f 100/6/65 90/26/65 108/33/65
f 101/15/66 106/27/66 90/26/66
f 101/15/67 104/14/67 106/27/67
f 104/14/68 89/23/68 106/27/68
f 104/12/69 105/24/69 89/23/69
f 104/12/70 102/11/70 105/24/70
f 102/11/71 88/20/71 105/24/71
f 102/9/72 103/21/72 88/20/72
f 102/9/73 97/8/73 103/21/73
f 97/8/74 87/61/74 103/21/74
f 100/6/75 101/62/75 90/26/75
f 100/6/76 98/5/76 101/62/76
f 98/5/77 85/63/77 101/62/77
f 97/3/78 99/18/78 87/17/78
f 97/3/79 98/2/79 99/18/79
f 98/2/80 86/4/80 99/18/80
